<?xml version="1.0" encoding="UTF-8" standalone="no"?>
<svg width="24px" height="24px" viewBox="0 0 24 24" version="1.1" xmlns="http://www.w3.org/2000/svg" xmlns:xlink="http://www.w3.org/1999/xlink">
    <!-- Generator: Sketch 41.2 (35397) - http://www.bohemiancoding.com/sketch -->
    <title>sidebar/item copy 2</title>
    <desc>Created with Sketch.</desc>
    <defs></defs>
    <g id="Symbols" stroke="none" stroke-width="1" fill="none" fill-rule="evenodd">
        <g id="sidebar/item-copy-2" transform="translate(-148.000000, -12.000000)" fill="#FFFFFF">
            <g transform="translate(148.000000, 12.000000)" id="Group-2">
                <g transform="translate(3.000000, 3.000000)">
                    <path d="M15.5269738,0 L2.4731809,0 C1.10940259,0 0,1.105475 0,2.46428299 L0,15.5385412 C0,16.8972171 1.10940259,18.0026481 2.4731809,18.0026481 L15.5269959,18.0026481 C16.8905533,18.0026481 18,16.8972171 18,15.5385412 L18,2.46428299 C17.9999779,1.105475 16.8905311,3.05587959e-16 15.5269738,3.05587959e-16 L15.5269738,0 Z M13.604793,6.51267873 C13.4138123,8.87770698 11.4222483,10.7443478 8.99997791,10.7443478 C6.56884679,10.7443478 4.57173652,8.86376993 4.39324043,6.48090751 C3.8088524,6.22464622 3.40048565,5.64294472 3.40048565,4.96590762 C3.40048565,4.05196256 4.14416786,3.31098671 5.06135236,3.31098671 C5.97875783,3.31098671 6.7221307,4.05196256 6.7221307,4.96590762 C6.7221307,5.65624328 6.29785443,6.24765447 5.69494946,6.49572527 C5.87371072,8.15573221 7.28753779,9.45262707 8.99997791,9.45262707 C10.7234663,9.45262707 12.1443864,8.13913103 12.3082104,6.46402012 C11.7441512,6.19961235 11.3532628,5.62832514 11.3532628,4.96590762 C11.3532628,4.05196256 12.0968566,3.31098671 13.0141295,3.31098671 C13.9314024,3.31098671 14.6748637,4.05196256 14.6748637,4.96590762 C14.6748858,5.67247016 14.2304132,6.27528639 13.604793,6.51267873 Z" id="Shape"></path>
                </g>
            </g>
        </g>
    </g>
</svg>