<?xml version="1.0" encoding="UTF-8" standalone="no"?>
<svg width="24px" height="24px" viewBox="0 0 24 24" version="1.1" xmlns="http://www.w3.org/2000/svg" xmlns:xlink="http://www.w3.org/1999/xlink">
    <!-- Generator: Sketch 41.2 (35397) - http://www.bohemiancoding.com/sketch -->
    <title>sidebar/item</title>
    <desc>Created with Sketch.</desc>
    <defs></defs>
    <g id="Symbols" stroke="none" stroke-width="1" fill="none" fill-rule="evenodd">
        <g id="sidebar/item-copy-2" transform="translate(-58.000000, -12.000000)" fill="#b0bec5">
            <g id="sidebar/item" transform="translate(58.000000, 12.000000)">
                <g id="Group-4">
                    <path d="M18,16.1365462 C17.24,16.1365462 16.56,16.437751 16.04,16.9096386 L8.91,12.7429719 C8.96,12.5120482 9,12.2811245 9,12.0401606 C9,11.7991968 8.96,11.5682731 8.91,11.3373494 L15.96,7.21084337 C16.5,7.71285141 17.21,8.02409639 18,8.02409639 C19.66,8.02409639 21,6.67871486 21,5.01204819 C21,3.34538153 19.66,2 18,2 C16.34,2 15,3.34538153 15,5.01204819 C15,5.25301205 15.04,5.48393574 15.09,5.71485944 L8.04,9.84136546 C7.5,9.33935743 6.79,9.02811245 6,9.02811245 C4.34,9.02811245 3,10.373494 3,12.0401606 C3,13.7068273 4.34,15.0522088 6,15.0522088 C6.79,15.0522088 7.5,14.7409639 8.04,14.2389558 L15.16,18.4156627 C15.11,18.626506 15.08,18.8473896 15.08,19.0682731 C15.08,20.684739 16.39,22 18,22 C19.61,22 20.92,20.684739 20.92,19.0682731 C20.92,17.4518072 19.61,16.1365462 18,16.1365462 L18,16.1365462 Z" id="Shape"></path>
                </g>
            </g>
        </g>
    </g>
</svg>
