<?xml version="1.0" encoding="UTF-8" standalone="no"?>
<svg width="48px" height="48px" viewBox="0 0 48 48" version="1.1" xmlns="http://www.w3.org/2000/svg" xmlns:xlink="http://www.w3.org/1999/xlink">
    <!-- Generator: Sketch 41.2 (35397) - http://www.bohemiancoding.com/sketch -->
    <title>Oval</title>
    <desc>Created with Sketch.</desc>
    <defs></defs>
    <g id="hi-fi" stroke="none" stroke-width="1" fill="none" fill-rule="evenodd">
        <g id="sign-In" transform="translate(-936.000000, -71.000000)">
            <g id="login">
                <g id="Group-2" transform="translate(0.000000, 71.000000)">
                    <g id="Group-4" transform="translate(858.000000, 0.000000)">
                        <g id="logo" transform="translate(78.000000, 0.000000)">
                            <circle id="Oval" fill="#37474F" cx="24" cy="24" r="24"></circle>
                            <g transform="translate(7.000000, 13.000000)" fill="#FFFFFF">
                                <path d="M0.676040852,7.8897731 C2.03340683,14.148356 7.48227965,18.8278676 13.9975541,18.8278676 C21.5343475,18.8278676 27.6441258,12.5659359 27.6441258,4.84145168 L26.4188125,4.84145168 C26.3720291,8.2167166 23.6878233,10.9380945 20.3834498,10.9380945 C18.1673865,10.9380945 16.2302531,9.71411275 15.1805207,7.8897731 L0.676040852,7.8897731 Z" id="Combined-Shape"></path>
                                <path d="M6.11955309,4.13999495 L1.96400224,4.13999495 C1.19106193,4.13999495 0.350982351,4.93742089 0.350982351,5.71951658 L0.350982351,17.0080732 C0.350982351,18.24954 1.75107572,19.1864937 2.08779541,19.1864937 L4.42168975,19.1864937 L13.983022,19.1864937 C15.237472,19.1864937 17.6716311,17.6217669 17.6716311,16.350265 L17.6716311,7.5557166 C17.6716311,6.58329985 17.5553506,5.40367563 15.9395873,5.40367563 L7.74826065,5.40367563 C7.66230347,4.70544681 6.83366235,4.13999495 6.11955309,4.13999495 Z" id="Combined-Shape" transform="translate(9.011307, 11.663244) scale(-1, 1) translate(-9.011307, -11.663244) "></path>
                                <path d="M6.11955309,6.4552689 L1.96400224,6.4552689 C1.19106193,6.4552689 0.350982351,7.12999125 0.350982351,7.79174228 L0.350982351,17.3139509 C0.350982351,18.3643875 1.75107572,19.1864937 2.08779541,19.1864937 L4.42168975,19.1864937 L13.983022,19.1864937 C15.237472,19.1864937 17.6716311,17.6384898 17.6716311,16.5626398 L17.6716311,9.34539775 C17.6716311,8.52261124 17.5014416,6.4552689 15.8856784,6.4552689 L6.11955309,6.4552689 Z" id="Combined-Shape-Copy"></path>
                                <path d="M9.97356498,18.4692416 L4.91592266,18.4692416 L2.58236072,18.4692416 C2.26264709,18.4692416 1.05080654,17.9777175 1.05080654,16.9716655 L1.05080654,13.6277899 L9.97356498,13.6277899 L9.97356498,18.4692416 Z" id="Combined-Shape"></path>
                                <path d="M17.147812,19.9562522 C16.2410313,20.9188892 14.9688127,21.517563 13.560164,21.517563 C10.8063356,21.517563 8.5739166,19.2295495 8.5739166,16.4071418 C8.5739166,15.0727308 9.07293368,13.8577741 9.89014138,12.9476011 L17.147812,19.9562522 Z" id="Combined-Shape"></path>
                                <path d="M27.6361399,6.20389456 C26.8806915,7.00587739 25.8207931,7.50463875 24.6472332,7.50463875 C22.3529904,7.50463875 20.493139,5.59847105 20.493139,3.24709403 C20.493139,2.13538247 20.9088753,1.12318943 21.5896995,0.364914967 L27.6361399,6.20389456 Z" id="Combined-Shape-Copy-3" transform="translate(24.064639, 3.934777) rotate(175.000000) translate(-24.064639, -3.934777) "></path>
                                <path d="M33.4863365,11.1650752 C32.7308881,11.967058 31.6709897,12.4658194 30.4974298,12.4658194 C28.203187,12.4658194 26.3433356,10.5596517 26.3433356,8.20827466 C26.3433356,7.09656309 26.7590719,6.08437006 27.4398961,5.32609559 L33.4863365,11.1650752 Z" id="Combined-Shape-Copy-4" transform="translate(29.914836, 8.895957) rotate(175.000000) translate(-29.914836, -8.895957) "></path>
                            </g>
                        </g>
                    </g>
                </g>
            </g>
        </g>
    </g>
</svg>