<?xml version="1.0" encoding="UTF-8" standalone="no"?>
<svg width="34px" height="40px" viewBox="0 0 34 40" version="1.1" xmlns="http://www.w3.org/2000/svg" xmlns:xlink="http://www.w3.org/1999/xlink">
    <defs></defs>
    <g id="Symbols" stroke="none" stroke-width="1" fill="none" fill-rule="evenodd">
        <g id="Glyphicons-/-trash-mouseover" transform="translate(0.000000, 1.000000)" fill="#FFFFFF">
            <path d="M24.443,5.621 L32.693,5.621 C32.893,5.621 33.068,5.696 33.219,5.846 C33.368,5.996 33.443,6.171 33.443,6.371 L33.443,7.871 C33.443,8.091 33.373,8.271 33.233,8.411 C33.094,8.551 32.913,8.621 32.693,8.621 L1.193,8.621 C0.973,8.621 0.793,8.551 0.653,8.411 C0.514,8.271 0.443,8.091 0.443,7.871 L0.443,6.371 C0.443,6.171 0.519,5.996 0.668,5.846 C0.818,5.696 0.993,5.621 1.193,5.621 L9.443,5.621 L9.443,2.621 C9.443,1.801 9.738,1.096 10.328,0.506 C10.918,-0.083 11.623,-0.379 12.443,-0.379 L21.443,-0.379 C22.264,-0.379 22.969,-0.083 23.559,0.506 C24.148,1.096 24.443,1.801 24.443,2.621 L24.443,5.621 L24.443,5.621 L24.443,5.621 L24.443,5.621 Z M3.443,11.621 L30.443,11.621 L30.443,35.621 C30.443,36.441 30.148,37.151 29.559,37.751 C28.969,38.351 28.264,38.651 27.443,38.651 L6.443,38.651 C5.623,38.651 4.918,38.351 4.328,37.751 C3.738,37.151 3.443,36.441 3.443,35.621 L3.443,11.621 L3.443,11.621 L3.443,11.621 L3.443,11.621 Z M6.443,35.621 L9.443,35.621 L9.443,14.621 L6.443,14.621 L6.443,14.621 L6.443,35.621 L6.443,35.621 Z M12.443,5.621 L21.443,5.621 L21.443,2.621 L12.443,2.621 L12.443,2.621 L12.443,5.621 L12.443,5.621 Z M12.443,35.621 L15.443,35.621 L15.443,14.621 L12.443,14.621 L12.443,14.621 L12.443,35.621 L12.443,35.621 Z M18.443,35.621 L21.443,35.621 L21.443,14.621 L18.443,14.621 L18.443,14.621 L18.443,35.621 L18.443,35.621 Z M24.443,35.621 L27.443,35.621 L27.443,14.621 L24.443,14.621 L24.443,14.621 L24.443,35.621 L24.443,35.621 Z" id="Fill-26"></path>
        </g>
    </g>
</svg>