<?xml version="1.0" encoding="UTF-8" standalone="no"?>
<svg width="63px" height="39px" viewBox="0 0 63 39" version="1.1" xmlns="http://www.w3.org/2000/svg" xmlns:xlink="http://www.w3.org/1999/xlink">
    <defs>
        <path d="M29.0347819,33.794898 L31.4588738,36.1358164 C29.760802,37.9024038 27.3849778,39 24.7554946,39 C21.4686338,39 18.5781167,37.2849988 16.9122563,34.6921206 L7.62896433,34.6921206 L3.25498335,34.6921206 C2.62393273,34.6921206 0,32.9606048 0,30.6663404 L0,9.80478127 C0,8.3594472 1.57440379,6.88578241 3.02298102,6.88578241 L10.8109515,6.88578241 C12.1492727,6.88578241 13.7022396,7.93075279 13.863333,9.22109861 L29.2148021,9.22109861 C32.2429245,9.22109861 32.4608473,11.4010762 32.4608473,13.1981288 L32.4608473,18.2328569 C33.988896,19.0107801 35.7153781,19.448855 37.5431011,19.448855 C42.5257693,19.448855 46.7560196,16.1931017 48.2646609,11.671734 L37.4245877,2.89361578 C38.705613,1.30415643 40.5977079,0.220707921 42.7800215,0.0297802273 C47.0633296,-0.344960674 50.842656,2.86049672 51.2213833,7.1893697 C51.2844136,7.90980862 51.2492825,8.61595991 51.1271731,9.29435213 C51.1184216,9.50326186 51.1072164,9.71152997 51.093586,9.91912779 C51.9049426,9.5318513 52.7971313,9.28101255 53.7439491,9.19817673 C58.0272572,8.82343583 61.8065836,12.0288932 62.1853109,16.3577662 C62.3670527,18.4350845 61.7326783,20.393615 60.5502739,21.9104102 L50.5431379,13.8067913 C48.2465595,24.265631 39.6802634,32.3400366 29.0347819,33.794898 Z" id="path-1"></path>
        <filter x="-50%" y="-50%" width="200%" height="200%" filterUnits="objectBoundingBox" id="filter-2">
            <feMorphology radius="1" operator="erode" in="SourceAlpha" result="shadowSpreadInner1"></feMorphology>
            <feGaussianBlur stdDeviation="4" in="shadowSpreadInner1" result="shadowBlurInner1"></feGaussianBlur>
            <feOffset dx="0" dy="1" in="shadowBlurInner1" result="shadowOffsetInner1"></feOffset>
            <feComposite in="shadowOffsetInner1" in2="SourceAlpha" operator="arithmetic" k2="-1" k3="1" result="shadowInnerInner1"></feComposite>
            <feColorMatrix values="0 0 0 0 0   0 0 0 0 0   0 0 0 0 0  0 0 0 0.304036458 0" type="matrix" in="shadowInnerInner1"></feColorMatrix>
        </filter>
    </defs>
    <g id="Page-1" stroke="none" stroke-width="1" fill="none" fill-rule="evenodd">
        <g id="Services-Copy-8" transform="translate(-14.000000, -11.000000)">
            <g id="menu" transform="translate(0.031250, -0.015625)">
                <g id="Group-31">
                    <g id="Group-14" transform="translate(14.000000, 11.000000)">
                        <g id="logo">
                            <use fill="#565353" fill-rule="evenodd" xlink:href="#path-1"></use>
                            <use fill="black" fill-opacity="1" filter="url(#filter-2)" xlink:href="#path-1"></use>
                        </g>
                    </g>
                </g>
            </g>
        </g>
    </g>
</svg>