<?xml version="1.0" encoding="UTF-8" standalone="no"?>
<svg width="31px" height="31px" viewBox="0 0 31 31" version="1.1" xmlns="http://www.w3.org/2000/svg" xmlns:xlink="http://www.w3.org/1999/xlink">
    <defs></defs>
    <g id="Hi-Fi" stroke="none" stroke-width="1" fill="none" fill-rule="evenodd">
        <g id="the-hint-of-confirm-remove-app" transform="translate(-26.000000, -232.000000)">
            <g id="Group-15">
                <g id="market" transform="translate(0.031250, 211.984375)">
                    <g id="Group-12" transform="translate(26.000000, 20.000000)">
                        <rect id="Rectangle-4" fill="#D69B96" x="0" y="0" width="31" height="31" rx="3"></rect>
                        <path d="M25,5 C25,4.44771525 24.5522847,4 24,4 C23.4477153,4 23,4.44771525 23,5 C23.3353271,5 24.4321289,5 25,5 Z" id="Oval-Copy-2" fill="#A77579"></path>
                        <path d="M9.02056885,5 C9.02056885,4.44771525 8.5728536,4 8.02056885,4 C7.4682841,4 7,4.44771525 7,5 C7.08679844,5 8.70578997,5 9.02056885,5 Z" id="Oval" fill="#A77579"></path>
                        <path d="M8,5 C8,8.16368723 9.46809667,15.9993429 16.0589783,15.9993429 C22.64986,15.9993429 24.0132446,7.48162508 24.0132446,5" id="Path-8" stroke="#A77579" stroke-width="2"></path>
                    </g>
                </g>
            </g>
        </g>
    </g>
</svg>