<?xml version="1.0" encoding="UTF-8" standalone="no"?>
<svg width="81px" height="69px" viewBox="0 0 81 69" version="1.1" xmlns="http://www.w3.org/2000/svg" xmlns:xlink="http://www.w3.org/1999/xlink">
    <defs></defs>
    <g id="v-0.2" stroke="none" stroke-width="1" fill="none" fill-rule="evenodd">
        <g id="market" transform="translate(-800.000000, -613.000000)">
            <g id="kummerbund" transform="translate(840.500000, 647.000000) scale(1, -1) translate(-840.500000, -647.000000) translate(800.000000, 612.000000)">
                <path d="M0.0213012695,1 C0.0213012695,1 0.220675864,0.816357939 0.46875,0.69317627 C0.681617713,0.587476414 0.939833244,0.577087402 1.03074458,0.577087402 C11.4140966,0.577087402 30.5126752,0.577087402 35.0128705,0.577087402 C35.6373131,0.577087402 36.0557669,0.69317627 36.0557669,0.69317627 L80.0304552,36.9937744 C80.0304552,36.9937744 80.1058403,37.09853 80.2421875,37.3613892 C80.3385272,37.5471191 80.3732562,38 80.3732562,38 L80.3732562,68.1403669 C80.3732562,68.6485637 80.0304552,69.0085095 80.0304552,69.0085095 C80.0304552,69.0085095 80.1112925,68.4260203 80.0304552,68.2260556 C79.9053251,67.9165253 79.4125528,67.4800243 79.4125528,67.4800243 L1.03074458,1 C1.03074458,1 0.796691895,0.921691895 0.563842773,0.921691895 C0.330993652,0.921691895 0.0213012695,1 0.0213012695,1 Z" id="Rectangle-15" fill="#55A854"></path>
                <text id="Installed" transform="translate(49.981575, 27.985195) scale(1, -1) rotate(-40.000000) translate(-49.981575, -27.985195) " font-family="Arial-BoldMT, Arial" font-size="14" font-weight="bold" fill="#E8E8E8">
                    <tspan x="21.5850907" y="32.9851951">Installed</tspan>
                </text>
            </g>
        </g>
    </g>
</svg>