<?xml version="1.0" encoding="UTF-8" standalone="no"?>
<svg width="71px" height="71px" viewBox="0 0 71 71" version="1.1" xmlns="http://www.w3.org/2000/svg" xmlns:xlink="http://www.w3.org/1999/xlink">
    <defs></defs>
    <g id="Page-1" stroke="none" stroke-width="1" fill="none" fill-rule="evenodd">
        <g id="app_remove" transform="translate(-429.000000, -586.000000)">
            <g id="Group-27" transform="translate(429.000000, 586.000000)">
                <rect id="Rectangle-9" fill="#2295ED" x="0" y="0" width="70.6673607" height="70.7411458" rx="14"></rect>
                <path d="M33.3338374,47.1593105 L35.2819618,49.0405923 C33.9173044,50.4603124 32.0079704,51.3423969 29.894783,51.3423969 C27.2532934,51.3423969 24.9303259,49.9641341 23.5915551,47.8803645 L16.1310264,47.8803645 L12.6158713,47.8803645 C12.1087267,47.8803645 10,46.4888297 10,44.6450414 L10,27.8796243 C10,26.7180798 11.2652715,25.5337673 12.4294223,25.5337673 L18.6882342,25.5337673 C19.7637776,25.5337673 21.0118213,26.373559 21.1412843,27.410547 L33.4785108,27.410547 C35.912065,27.410547 36.087199,29.1624886 36.087199,30.6066921 L36.087199,34.6528574 C37.3152171,35.2780363 38.7027066,35.6300957 40.1715584,35.6300957 C44.1758857,35.6300957 47.5755314,33.0136057 48.7879528,29.380003 L40.0763149,22.3254578 C41.1058125,21.0480869 42.6263968,20.1773722 44.3802157,20.0239329 C47.8225014,19.7227719 50.8597617,22.2988416 51.1641263,25.7777456 C51.2147807,26.3567272 51.1865475,26.9242265 51.0884142,27.4694173 C51.081381,27.6373078 51.0723759,27.8046827 51.0614218,27.971519 C51.7134696,27.6602838 52.4304781,27.4586969 53.1913893,27.3921258 C56.633675,27.0909648 59.6709353,29.6670345 59.9752999,33.1459385 C60.1213569,34.8153778 59.6115412,36.3893532 58.6613005,37.6083275 L50.6190536,31.0958444 C48.7734056,39.5011036 41.8890914,45.9901094 33.3338374,47.1593105 Z" id="logo" fill="#FFFFFF"></path>
            </g>
        </g>
    </g>
</svg>